<svg id="圖層_1" data-name="圖層 1" xmlns="http://www.w3.org/2000/svg" viewBox="0 0 20 20"><defs><style>.cls-1{fill:#fefefe;}</style></defs><title>user</title><path class="cls-1" d="M10,7.22A2.78,2.78,0,1,0,12.78,10,2.79,2.79,0,0,0,10,7.22Zm0,4.52A1.74,1.74,0,1,1,11.74,10,1.74,1.74,0,0,1,10,11.74Z"/><circle class="cls-1" cx="12.99" cy="7.01" r="0.37" transform="translate(-0.08 0.16) rotate(-0.7)"/><path class="cls-1" d="M10,1.61A8.39,8.39,0,1,0,18.39,10,8.39,8.39,0,0,0,10,1.61Zm2.77,12.81a2.6,2.6,0,0,1-.74.1H8a2.4,2.4,0,0,1-2.27-1.45,2.29,2.29,0,0,1-.21-1c0-1.38,0-2.75,0-4.13a2.43,2.43,0,0,1,1.93-2.4A2.51,2.51,0,0,1,8,5.48H12A2.44,2.44,0,0,1,14.52,8c0,1.36,0,2.72,0,4.08A2.45,2.45,0,0,1,12.77,14.42Z"/></svg>