<svg id="圖層_1" data-name="圖層 1" xmlns="http://www.w3.org/2000/svg" viewBox="0 0 20 20"><defs><style>.cls-1{fill:#fff;}</style></defs><title>icon</title><path class="cls-1" d="M10,1.61A8.39,8.39,0,1,0,18.39,10,8.39,8.39,0,0,0,10,1.61Zm2.86,4.47c0,.08,0,.11-.1.1h-.93a1.64,1.64,0,0,0-.44.05.69.69,0,0,0-.54.69c0,.53,0,1.06,0,1.58,0,.09.06.06.1.06h1.66c.07,0,.09,0,.08.08q-.12.93-.23,1.86c0,.08,0,.09-.11.09H11c-.09,0-.11,0-.11.11,0,1.62,0,3.25,0,4.87,0,.1,0,.13-.13.13H8.92c-.1,0-.12,0-.12-.12,0-1.62,0-3.24,0-4.86,0-.1,0-.13-.12-.13H7.25c-.08,0-.11,0-.11-.1q0-.91,0-1.83c0-.09,0-.1.11-.1H8.7c.09,0,.11,0,.11-.11,0-.61,0-1.21,0-1.82A2.53,2.53,0,0,1,9.53,5a2.35,2.35,0,0,1,1.42-.65s.06,0,.08,0h.4a.29.29,0,0,0,.18,0h.11s0,0,.05,0h.16s.05,0,.07,0h.07a1.22,1.22,0,0,0,.33,0l.34,0c.08,0,.11,0,.11.11Q12.85,5.27,12.86,6.08Z"/></svg>